<svg xmlns="http://www.w3.org/2000/svg" xmlns:xlink="http://www.w3.org/1999/xlink" version="1.1" x="0px" y="0px" viewBox="0 0 100 130" enable-background="new 0 0 100 104" xml:space="preserve"><path d="M84.832,24.383H68.268v-9.314c0-6.122-4.979-11.103-11.104-11.103h-14.33c-6.122,0-11.103,4.98-11.103,11.103v9.314H15.167  c-2.185,0-3.968,1.749-4.024,3.92L2.896,95.82l-0.011,0.095v0.094c0,2.22,1.806,4.025,4.025,4.025h86.18  c2.219,0,4.025-1.806,4.025-4.025v-0.094l-8.26-67.612C88.8,26.132,87.016,24.383,84.832,24.383z M34.827,15.068  c0-4.415,3.592-8.007,8.007-8.007h14.33c4.415,0,8.007,3.592,8.007,8.007v9.314H34.827V15.068z M93.09,96.938H6.91  c-0.488,0-0.89-0.377-0.927-0.855l8.243-67.485l0.012-0.094v-0.094c0-0.513,0.416-0.929,0.929-0.929h16.564v6.245h3.096V27.48  h30.344v6.244h3.097V27.48h16.564c0.512,0,0.929,0.416,0.929,0.929v0.094l8.255,67.579C93.979,96.561,93.578,96.938,93.09,96.938z"/><path d="M50.018,65.776c-0.008-0.018-0.022-0.045-0.036-0.071C50,65.739,50.011,65.763,50.018,65.776z"/><path d="M49.996,65.731C50.008,65.756,50.005,65.751,49.996,65.731L49.996,65.731z"/><path d="M71.119,70.685c0.166,0,0.331,0.001,0.499,0.001c0.534,0,0.873-0.594,0.61-1.054l-1.213-2.106  c0.13-0.001,0.26-0.001,0.39-0.001c0.511,0,0.86-0.556,0.632-1.015l-3.778-10.008c-0.117-0.235-0.365-0.39-0.629-0.39  c-4.837,0-9.391,0.9-12.826,2.536c-2.338,1.112-3.993,3.661-4.867,5.187c-0.874-1.524-2.528-4.074-4.867-5.187  c-3.435-1.636-7.989-2.536-12.825-2.536c-0.261,0-0.513,0.153-0.628,0.389l-3.803,10.006c-0.233,0.459,0.118,1.018,0.629,1.018  c0.202,0,0.403,0,0.602,0.002l-1.213,2.105c-0.254,0.461,0.071,1.053,0.61,1.053c0.169,0,0.333,0,0.499,0l-1.244,2.454  c-0.251,0.5,0.178,1.091,0.736,1.011l17.419-1.573c0.37,1.7,1.924,1.622,4.1,1.622c2.175,0,3.729,0.078,4.1-1.622l17.421,1.573  c0.757,0.12,0.965-0.866,0.892-1.011L71.119,70.685z M30.401,66.141c-0.088-0.019-0.178-0.021-0.264-0.006  c-0.188-0.003-0.375-0.006-0.564-0.009l3.103-8.604c4.469,0.052,8.642,0.896,11.79,2.394c2.915,1.39,4.591,4.326,4.766,6.178  l0.005,5.232C46.139,69.04,39.082,66.325,30.401,66.141z M69.897,66.132c-0.07-0.01-0.142-0.009-0.213,0.003  c-9.347,0.175-16.17,2.6-19.031,5.161l-0.012-5.203c0.175-1.852,1.851-4.788,4.766-6.178c3.148-1.498,7.322-2.342,11.79-2.394  l3.08,8.604C70.15,66.128,70.024,66.13,69.897,66.132z"/><path d="M49.995,65.729c0.004,0.008,0.008,0.016,0.011,0.023C49.999,65.738,49.995,65.729,49.995,65.729z"/><line fill="none" x1="32.196" y1="56.112" x2="67.805" y2="56.112"/></svg>